<svg width="160" height="272" viewBox="0 0 160 272" fill="none" xmlns="http://www.w3.org/2000/svg">
<g clip-path="url(#clip0_851_55915)">
<path d="M146.813 213.035L58.6439 272.34L86.4951 168.455L0 96.9227H109.79L146.813 -1.52588e-05L183.836 96.9227H293.621L207.134 168.455L234.985 272.34L146.813 213.035Z" fill="#BC8422"/>
<path d="M92.475 166.546L14.6836 102.211H113.425L146.812 14.8045L180.203 102.211H278.94L201.153 166.546L226.23 260.083L146.812 206.666L67.3976 260.083L92.475 166.546Z" fill="#D3E8E1"/>
<path d="M146.811 200.297L76.1513 247.825L98.4548 164.633L29.3672 107.498H117.06L146.811 29.6046L176.566 107.498H264.255L195.171 164.633L217.475 247.825L146.811 200.297Z" fill="#1A3C34"/>
<path d="M104.435 162.722L44.0508 112.781H120.691L146.81 44.4077L172.929 112.781H249.57L189.19 162.722L208.72 235.57L146.81 193.927L84.9049 235.57L104.435 162.722Z" fill="#006241"/>
<path d="M146.813 187.562L93.6625 223.313L110.418 160.813L58.7383 118.068H124.33L146.813 59.2079L169.296 118.068H234.889L183.212 160.809L199.968 223.313L146.813 187.562Z" fill="#BC8422"/>
<path d="M146.813 181.194L102.416 211.055L116.398 158.9L73.418 123.356H127.966L146.813 74.0123L165.664 123.356H220.207L177.231 158.9L191.213 211.055L146.813 181.194Z" fill="#D3E8E1"/>
<path d="M146.812 174.825L111.17 198.798L122.378 156.99L88.1016 128.644H131.597L146.812 88.8125L162.027 128.644H205.522L171.249 156.99L182.458 198.798L146.812 174.825Z" fill="#1A3C34"/>
<path d="M146.811 168.455L119.923 186.539L128.358 155.076L102.785 133.926H135.232L146.811 103.616L158.39 133.926H190.837L165.268 155.076L173.703 186.539L146.811 168.455Z" fill="#006241"/>
<path d="M176.156 139.214H154.757L146.81 118.416L138.867 139.214H117.469L134.338 153.167L128.677 174.281L146.81 162.086L164.947 174.281L159.286 153.167L176.156 139.214Z" fill="#BC8422"/>
</g>
<defs>
<clipPath id="clip0_851_55915">
<rect width="293.621" height="272.34" fill="white"/>
</clipPath>
</defs>
</svg>
